<!DOCTYPE svg PUBLIC "-//W3C//DTD SVG 1.1//EN" "http://www.w3.org/Graphics/SVG/1.1/DTD/svg11.dtd">

<!-- Uploaded to: SVG Repo, www.svgrepo.com, Transformed by: SVG Repo Mixer Tools -->
<svg height="64px" width="64px" version="1.1" id="_x32_" xmlns="http://www.w3.org/2000/svg" xmlns:xlink="http://www.w3.org/1999/xlink" viewBox="-51.2 -51.2 614.40 614.40" xml:space="preserve" fill="#24c0d1" stroke="#24c0d1" stroke-width="10.24">

<g id="SVGRepo_bgCarrier" stroke-width="0"/>

<g id="SVGRepo_tracerCarrier" stroke-linecap="round" stroke-linejoin="round"/>

<g id="SVGRepo_iconCarrier"> <style type="text/css"> .st0{fill:#24c0d1;} </style> <g> <path class="st0" d="M451.791,76.035H60.21C27.018,76.035,0,103.059,0,136.25v221.526c0,43.111,35.072,78.189,78.178,78.189 h355.644c43.106,0,78.178-35.078,78.178-78.189V136.25C512,103.059,484.982,76.035,451.791,76.035z M481.582,357.776 c0,26.34-21.426,47.765-47.76,47.765H78.178c-26.334,0-47.76-21.425-47.76-47.765V136.25c0-16.43,13.367-29.791,29.792-29.791 h391.581c16.424,0,29.791,13.36,29.791,29.791V357.776z"/> <path class="st0" d="M150.967,281.349h32.636c4.986,0,9.028-4.042,9.028-9.028v-32.642c0-4.986-4.042-9.028-9.028-9.028h-32.636 c-4.987,0-9.029,4.042-9.029,9.028v32.642C141.938,277.307,145.98,281.349,150.967,281.349z"/> <path class="st0" d="M227.01,281.349h32.631c4.987,0,9.029-4.042,9.029-9.028v-32.642c0-4.986-4.042-9.028-9.029-9.028H227.01 c-4.986,0-9.029,4.042-9.029,9.028v32.642C217.981,277.307,222.024,281.349,227.01,281.349z"/> <path class="st0" d="M303.048,281.349h32.636c4.986,0,9.029-4.042,9.029-9.028v-32.642c0-4.986-4.043-9.028-9.029-9.028h-32.636 c-4.986,0-9.029,4.042-9.029,9.028v32.642C294.019,277.307,298.062,281.349,303.048,281.349z"/> <path class="st0" d="M437.067,306.694h-32.632c-4.986,0-9.028,4.043-9.028,9.029v32.631c0,4.986,4.042,9.029,9.028,9.029h32.632 c4.986,0,9.029-4.043,9.029-9.029v-32.631C446.096,310.737,442.052,306.694,437.067,306.694z"/> <path class="st0" d="M150.967,205.307h32.636c4.986,0,9.028-4.043,9.028-9.029v-32.631c0-4.986-4.042-9.028-9.028-9.028h-32.636 c-4.987,0-9.029,4.042-9.029,9.028v32.631C141.938,201.264,145.98,205.307,150.967,205.307z"/> <path class="st0" d="M107.566,230.651H74.929c-4.986,0-9.029,4.042-9.029,9.028v32.642c0,4.986,4.043,9.028,9.029,9.028h32.636 c4.986,0,9.029-4.042,9.029-9.028v-32.642C116.594,234.693,112.551,230.651,107.566,230.651z"/> <path class="st0" d="M107.566,154.619H74.929c-4.986,0-9.029,4.042-9.029,9.028v32.631c0,4.986,4.043,9.029,9.029,9.029h32.636 c4.986,0,9.029-4.043,9.029-9.029v-32.631C116.594,158.661,112.551,154.619,107.566,154.619z"/> <path class="st0" d="M107.566,306.694H74.934c-4.987,0-9.029,4.043-9.029,9.029v32.631c0,4.986,4.042,9.029,9.029,9.029h32.631 c4.986,0,9.029-4.043,9.029-9.029v-32.631C116.594,310.737,112.551,306.694,107.566,306.694z"/> <path class="st0" d="M227.01,205.307h32.631c4.987,0,9.029-4.043,9.029-9.029v-32.631c0-4.986-4.042-9.028-9.029-9.028H227.01 c-4.986,0-9.029,4.042-9.029,9.028v32.631C217.981,201.264,222.024,205.307,227.01,205.307z"/> <path class="st0" d="M303.048,205.307h32.636c4.986,0,9.029-4.043,9.029-9.029v-32.631c0-4.986-4.043-9.028-9.029-9.028h-32.636 c-4.986,0-9.029,4.042-9.029,9.028v32.631C294.019,201.264,298.062,205.307,303.048,205.307z"/> <path class="st0" d="M361.029,306.694H150.967c-4.987,0-9.029,4.043-9.029,9.029v32.631c0,4.986,4.042,9.029,9.029,9.029h210.062 c4.986,0,9.028-4.043,9.028-9.029v-32.631C370.057,310.737,366.014,306.694,361.029,306.694z"/> <path class="st0" d="M437.067,154.619h-57.981c-4.987,0-9.029,4.042-9.029,9.028v108.674c0,4.986,4.042,9.028,9.029,9.028h57.981 c4.986,0,9.029-4.042,9.029-9.028V163.647C446.096,158.661,442.052,154.619,437.067,154.619z"/> 
    
    <!-- Diagonal slash line from top-left to bottom-right -->
    <line x1="30" y1="30" x2="482" y2="482" stroke="#24c0d1" stroke-width="60" stroke-linecap="round"/>
</g> </g>

</svg>