<svg width="64px" height="64px" viewBox="0 0 24 24" fill="none" xmlns="http://www.w3.org/2000/svg" stroke="#2e86de" stroke-width="0.72"><g id="SVGRepo_bgCarrier" stroke-width="0"></g><g id="SVGRepo_tracerCarrier" stroke-linecap="round" stroke-linejoin="round"></g><g id="SVGRepo_iconCarrier"> <path fill-rule="evenodd" clip-rule="evenodd" d="M5.65845 3.45374C6.1639 3.27447 6.67734 3.25 7.10257 3.25H7.71504C8.74784 3.25 9.7552 3.5704 10.5982 4.16702L11.1001 4.52223C11.3633 4.70844 11.6777 4.80844 12 4.80844C12.3224 4.80844 12.6368 4.70844 12.8999 4.52222L13.4018 4.16703C14.2448 3.5704 15.2522 3.25 16.2849 3.25H16.8974C17.3227 3.25 17.8361 3.27447 18.3415 3.45373C19.7848 3.96561 20.9262 5.14191 21.6779 7.04514C22.4219 8.92876 22.8039 11.5642 22.7439 15.1153C22.7312 15.8648 22.6377 16.7048 22.3495 17.4614C22.0576 18.2279 21.5475 18.9504 20.6893 19.3608C20.2011 19.5943 19.6257 19.75 18.9733 19.75C18.1864 19.75 17.5391 19.5233 17.0312 19.1905C16.5588 18.8808 16.1457 18.4805 15.7928 18.1385C15.7498 18.0968 15.7077 18.0561 15.6665 18.0164C15.2616 17.6267 14.9212 17.3226 14.5435 17.1267C14.0662 16.8792 13.5365 16.75 12.9989 16.75H11.0012C10.4635 16.75 9.93378 16.8792 9.45652 17.1267C9.07878 17.3226 8.73837 17.6267 8.33351 18.0164C8.29232 18.0561 8.25024 18.0968 8.20726 18.1385C7.85433 18.4805 7.44123 18.8808 6.96877 19.1905C6.46087 19.5233 5.81363 19.75 5.02671 19.75C4.37431 19.75 3.79887 19.5943 3.31066 19.3608C2.45248 18.9504 1.94246 18.2279 1.65049 17.4614C1.36232 16.7048 1.26883 15.8648 1.25615 15.1153C1.19607 11.5643 1.57809 8.92876 2.32207 7.04515C3.0738 5.14192 4.2152 3.96561 5.65845 3.45374ZM7.10257 4.75C6.71943 4.75 6.41628 4.77651 6.15985 4.86745C5.2204 5.20065 4.35098 5.99156 3.71719 7.59618C3.07565 9.22042 2.69746 11.6334 2.75593 15.0899C2.76714 15.7524 2.85078 16.3985 3.05225 16.9275C3.24992 17.4465 3.54206 17.8088 3.95781 18.0076C4.26356 18.1538 4.61904 18.25 5.02671 18.25C5.51183 18.25 5.87475 18.114 6.14651 17.9359C6.49227 17.7093 6.79957 17.4125 7.16871 17.0559C7.20944 17.0165 7.25091 16.9765 7.29328 16.9357C7.69425 16.5497 8.1737 16.1022 8.76598 15.7951C9.45661 15.4369 10.2232 15.25 11.0012 15.25H12.9989C13.7768 15.25 14.5434 15.4369 15.234 15.7951C15.8263 16.1022 16.3058 16.5497 16.7067 16.9357C16.7491 16.9765 16.7906 17.0165 16.8313 17.0559C17.2004 17.4125 17.5077 17.7093 17.8535 17.9359C18.1253 18.114 18.4882 18.25 18.9733 18.25C19.381 18.25 19.7364 18.1538 20.0422 18.0076C20.458 17.8088 20.7501 17.4465 20.9478 16.9275C21.1492 16.3985 21.2329 15.7524 21.2441 15.0899C21.3025 11.6334 20.9244 9.22041 20.2828 7.59618C19.649 5.99155 18.7796 5.20064 17.8401 4.86745C17.5837 4.77651 17.2806 4.75 16.8974 4.75H16.2849C15.5626 4.75 14.858 4.9741 14.2683 5.39141L13.7664 5.74661C13.25 6.11214 12.6328 6.30844 12 6.30844C11.3673 6.30844 10.7501 6.11215 10.2336 5.74662L9.73171 5.39142C9.14205 4.97411 8.43744 4.75 7.71504 4.75H7.10257ZM7.5 8.25C7.91422 8.25 8.25 8.58579 8.25 9V9.75H9C9.41422 9.75 9.75 10.0858 9.75 10.5C9.75 10.9142 9.41422 11.25 9 11.25H8.25V12C8.25 12.4142 7.91422 12.75 7.5 12.75C7.08579 12.75 6.75 12.4142 6.75 12V11.25H6C5.58579 11.25 5.25 10.9142 5.25 10.5C5.25 10.0858 5.58579 9.75 6 9.75H6.75V9C6.75 8.58579 7.08579 8.25 7.5 8.25Z" fill="#2e86de"></path> <path d="M19 10.25C19 10.6642 18.6642 11 18.25 11C17.8358 11 17.5 10.6642 17.5 10.25C17.5 9.83579 17.8358 9.5 18.25 9.5C18.6642 9.5 19 9.83579 19 10.25Z" fill="#2e86de"></path> <path d="M16 10.25C16 10.6642 15.6642 11 15.25 11C14.8358 11 14.5 10.6642 14.5 10.25C14.5 9.83579 14.8358 9.5 15.25 9.5C15.6642 9.5 16 9.83579 16 10.25Z" fill="#2e86de"></path> <path d="M16.75 8C17.1642 8 17.5 8.33579 17.5 8.75C17.5 9.16421 17.1642 9.5 16.75 9.5C16.3358 9.5 16 9.16421 16 8.75C16 8.33579 16.3358 8 16.75 8Z" fill="#2e86de"></path> <path d="M16.75 11C17.1642 11 17.5 11.3358 17.5 11.75C17.5 12.1642 17.1642 12.5 16.75 12.5C16.3358 12.5 16 12.1642 16 11.75C16 11.3358 16.3358 11 16.75 11Z" fill="#2e86de"></path> </g></svg>