<svg xmlns="http://www.w3.org/2000/svg" width="64px" height="64px" viewBox="-76.8 -76.8 665.60 665.60">
  <!-- 背景透明，保持15% padding -->

  <!-- 锁头 (青色 #24c0d1)，整体稍微左移并下移，避免偏右上 -->
  <g transform="translate(70,40) scale(0.9)">
    <path fill="#24c0d1" d="M407.813,212.719h-9.5v-70.406c0.016-39.203-15.984-74.969-41.688-100.625
      C330.969,15.969,295.203-0.016,256,0c-39.203-0.016-74.969,15.969-100.625,41.688
      c-25.703,25.656-41.703,61.422-41.672,100.625v70.406h-9.516
      c-34.453,0-62.375,27.938-62.375,62.375v174.531c0,34.438,27.922,62.375,62.375,62.375h303.625
      c34.453,0,62.375-27.938,62.375-62.375V275.094C470.188,240.656,442.266,212.719,407.813,212.719z
      M175.313,142.313c0.016-22.391,8.984-42.375,23.625-57.063
      C213.641,70.594,233.625,61.625,256,61.625s42.359,8.969,57.047,23.625
      c14.656,14.688,23.625,34.672,23.641,57.063v70.406H175.313V142.313z
      M274.031,381.672l9.828,63.703H256h-27.859l9.813-63.703
      c-15.5-6.922-26.328-22.422-26.328-40.484c0-24.5,19.859-44.375,44.375-44.375
      c24.5,0,44.375,19.875,44.375,44.375C300.375,359.25,289.531,374.75,274.031,381.672z"/>
  </g>

  <!-- 闪电 (黄色 #FFC107)，稍微下移并左移，和锁头重心对齐 -->
  <polygon points="386.415,193.208 287.481,193.208 359.434,0 161.566,0 125.585,280.151 206.528,280.151 170.557,512"
           fill="#FFC107"
           transform="translate(-80,10) scale(0.9)"/>
</svg>