<!DOCTYPE svg PUBLIC "-//W3C//DTD SVG 1.1//EN" "http://www.w3.org/Graphics/SVG/1.1/DTD/svg11.dtd">
<!-- Uploaded to: SVG Repo, www.svgrepo.com, Transformed by: SVG Repo Mixer Tools -->
<svg version="1.1" id="_x32_" xmlns="http://www.w3.org/2000/svg" xmlns:xlink="http://www.w3.org/1999/xlink" width="64px" height="64px" viewBox="-76.8 -76.8 665.60 665.60" xml:space="preserve" fill="#24c0d1">
<g id="SVGRepo_bgCarrier" stroke-width="0"/>
<g id="SVGRepo_tracerCarrier" stroke-linecap="round" stroke-linejoin="round"/>
<g id="SVGRepo_iconCarrier"> <style type="text/css">  .st0{fill:#24c0d1;}  </style> <g> <path class="st0" d="M407.813,212.719h-9.5v-70.406c0.016-39.203-15.984-74.969-41.688-100.625C330.969,15.969,295.203-0.016,256,0 c-39.203-0.016-74.969,15.969-100.625,41.688c-25.703,25.656-41.703,61.422-41.672,100.625v70.406h-9.516 c-34.453,0-62.375,27.938-62.375,62.375v174.531c0,34.438,27.922,62.375,62.375,62.375h303.625 c34.453,0,62.375-27.938,62.375-62.375V275.094C470.188,240.656,442.266,212.719,407.813,212.719z M175.313,142.313 c0.016-22.391,8.984-42.375,23.625-57.063C213.641,70.594,233.625,61.625,256,61.625s42.359,8.969,57.047,23.625 c14.656,14.688,23.625,34.672,23.641,57.063v70.406H175.313V142.313z M274.031,381.672l9.828,63.703H256h-27.859l9.813-63.703 c-15.5-6.922-26.328-22.422-26.328-40.484c0-24.5,19.859-44.375,44.375-44.375c24.5,0,44.375,19.875,44.375,44.375 C300.375,359.25,289.531,374.75,274.031,381.672z"/> </g> </g>
</svg>