<!DOCTYPE svg PUBLIC "-//W3C//DTD SVG 1.1//EN" "http://www.w3.org/Graphics/SVG/1.1/DTD/svg11.dtd">
<!-- Uploaded to: SVG Repo, www.svgrepo.com, Transformed by: SVG Repo Mixer Tools -->
<svg width="64px" height="64px" viewBox="-1.2 -1.2 26.40 26.40" id="magicoon-Filled" xmlns="http://www.w3.org/2000/svg" fill="#24c0d1" stroke="#24c0d1" stroke-width="0.24000000000000005">
<g id="SVGRepo_bgCarrier" stroke-width="0"/>
<g id="SVGRepo_tracerCarrier" stroke-linecap="round" stroke-linejoin="round"/>
<g id="SVGRepo_iconCarrier"> <defs> <style>.cls-1{fill:#24c0d1;}</style> </defs> <title>microphone</title> <g id="microphone-Filled"> <path id="microphone-Filled-2" data-name="microphone-Filled" class="cls-1" d="M7.5,11V7a4.5,4.5,0,0,1,9,0v4a4.5,4.5,0,0,1-9,0ZM20,11a1,1,0,0,0-2,0A6,6,0,0,1,6,11a1,1,0,0,0-2,0,8.008,8.008,0,0,0,7,7.931V20H8a1,1,0,0,0,0,2h8a1,1,0,0,0,0-2H13V18.931A8.008,8.008,0,0,0,20,11Z"/> </g> </g>
</svg>