<!DOCTYPE svg PUBLIC "-//W3C//DTD SVG 1.1//EN" "http://www.w3.org/Graphics/SVG/1.1/DTD/svg11.dtd">

<!-- Uploaded to: SVG Repo, www.svgrepo.com, Transformed by: SVG Repo Mixer Tools -->
<svg width="64px" height="64px" viewBox="-2.4 -2.4 28.80 28.80" fill="none" xmlns="http://www.w3.org/2000/svg" stroke="#24c0d1" stroke-width="0.4800000000000001">

<g id="SVGRepo_bgCarrier" stroke-width="0"/>

<g id="SVGRepo_tracerCarrier" stroke-linecap="round" stroke-linejoin="round"/>

<g id="SVGRepo_iconCarrier"> <path fill-rule="evenodd" clip-rule="evenodd" d="M4.25 9C4.25 4.71979 7.71979 1.25 12 1.25C16.2802 1.25 19.75 4.71979 19.75 9V15C19.75 19.2802 16.2802 22.75 12 22.75C7.71979 22.75 4.25 19.2802 4.25 15V9ZM11.25 2.79454C8.15183 3.16505 5.75 5.80204 5.75 9V15C5.75 18.4518 8.54822 21.25 12 21.25C15.4518 21.25 18.25 18.4518 18.25 15V9C18.25 5.80204 15.8482 3.16505 12.75 2.79454V6.37803C13.6239 6.68691 14.25 7.52034 14.25 8.5V10.5C14.25 11.7426 13.2426 12.75 12 12.75C10.7574 12.75 9.75 11.7426 9.75 10.5V8.5C9.75 7.52034 10.3761 6.68691 11.25 6.37803V2.79454ZM12 7.75C11.5858 7.75 11.25 8.08579 11.25 8.5V10.5C11.25 10.9142 11.5858 11.25 12 11.25C12.4142 11.25 12.75 10.9142 12.75 10.5V8.5C12.75 8.08579 12.4142 7.75 12 7.75Z" fill="#24c0d1"/> </g>

</svg>