<svg width="64px" height="64px" viewBox="0 -1.5 31 31" xmlns="http://www.w3.org/2000/svg" fill="#23b8c9">
  <g transform="translate(-258, -571)" fill="#23b8c9">
    <!-- 喇叭本体 -->
    <path d="M272,573 L265,577.667 L265,592.333 L272,597 C273.104,597 274,596.104 274,595 L274,575 C274,573.896 273.104,573 272,573 Z"/>
    <!-- 中间的音量弧线 -->
    <path d="M283,585 C283,581.477 280.388,578.59 277,578.101 L277,580.101 C279.282,580.564 281,582.581 281,585 C281,587.419 279.282,589.436 277,589.899 L277,591.899 C280.388,591.41 283,588.523 283,585 Z"/>
    <!-- 左边矩形 -->
    <path d="M258,581 L258,589 C258,590.104 258.896,591 260,591 L263,591 L263,579 L260,579 C258.896,579 258,579.896 258,581 Z"/>
  </g>
</svg>