<svg width="64px" height="64px" viewBox="0 -1.5 31 31" xmlns="http://www.w3.org/2000/svg" fill="#23b8c9">
  <g transform="translate(-258, -571)" fill="#23b8c9">
    <!-- 喇叭本体 -->
    <path d="M272,573 L265,577.667 L265,592.333 L272,597 C273.104,597 274,596.104 274,595 L274,575 C274,573.896 273.104,573 272,573 Z"/>
    <!-- 左边矩形 -->
    <path d="M258,581 L258,589 C258,590.104 258.896,591 260,591 L263,591 L263,579 L260,579 C258.896,579 258,579.896 258,581 Z"/>
    <!-- 替换弧线为 X -->
    <path d="M283.444,585 L287.617,580.827 C288.067,580.377 288.109,579.688 287.711,579.289 C287.312,578.891 286.623,578.933 286.173,579.383 L282,583.556 L277.827,579.383 C277.377,578.933 276.688,578.891 276.289,579.289 C275.891,579.688 275.933,580.377 276.383,580.827 L280.556,585 L276.383,589.173 C275.933,589.623 275.891,590.312 276.289,590.711 C276.688,591.109 277.377,591.067 277.827,590.617 L282,586.444 L286.173,590.617 C286.623,591.067 287.312,591.109 287.711,590.711 C288.109,590.312 288.067,589.623 287.617,589.173 L283.444,585 Z"/>
  </g>
</svg>